<svg width="17" height="20" viewBox="0 0 17 20" fill="none" xmlns="http://www.w3.org/2000/svg">
<path d="M16.9909 5.00773C15.8849 5.00773 14.8644 4.62902 14.045 3.99014C13.1052 3.25776 12.4299 2.18345 12.1915 0.945208C12.1324 0.639268 12.1006 0.323546 12.0976 0H8.93823V8.92314L8.93445 13.8108C8.93445 15.1175 8.11121 16.2254 6.97002 16.6151C6.63883 16.7282 6.28115 16.7818 5.9087 16.7606C5.4333 16.7336 4.9878 16.5854 4.60059 16.3459C3.77659 15.8365 3.21793 14.9125 3.20279 13.8554C3.17894 12.2032 4.47115 10.8562 6.06843 10.8562C6.38372 10.8562 6.68652 10.9094 6.97002 11.006V8.56712V7.69038C6.671 7.64461 6.36669 7.62074 6.05896 7.62074C4.31066 7.62074 2.67553 8.3719 1.50672 9.72516C0.623291 10.7478 0.0933877 12.0526 0.0116312 13.4207C-0.095485 15.218 0.540778 16.9265 1.7747 18.187C1.956 18.3721 2.14638 18.5438 2.34548 18.7023C3.40339 19.5438 4.69673 20 6.05896 20C6.36669 20 6.671 19.9765 6.97002 19.9308C8.24255 19.7359 9.41666 19.1338 10.3432 18.187C11.4818 17.0239 12.1108 15.4797 12.1177 13.8362L12.1014 6.53743C12.6445 6.97052 13.2384 7.32889 13.8758 7.60705C14.8671 8.03936 15.9182 8.25845 17 8.25805V5.88682V5.00694C17.0007 5.00773 16.9916 5.00773 16.9909 5.00773Z" fill="white"/>
</svg>
